<svg id="Layer_1" data-name="Layer 1" xmlns="http://www.w3.org/2000/svg" viewBox="0 0 800 800"><defs><style>.cls-1{fill:#750000;}</style></defs><path class="cls-1" d="M580.92,594.14c14-37.62,21.81-75.74,21.81-113.87,0-75.22-56.47-123.07-110.06-127-20.88-1.51-36,.26-57.22,7.63,9.33-22.39,11.56-44.21,10.55-66C442.79,225,374.5,186.53,321.41,186.53c-28.91,0-53.25,1.52-115.26,29.42h0V594.14H580.92ZM267.73,254.68a161.27,161.27,0,0,1,55.37-10.33c35.5,0,67.46,26.61,67.46,67.19,0,34.25-11.44,60.17-61,109.73l43.57,43.57c35.19-34.18,63.34-56,103-56,43.61,0,68.89,34.49,68.89,75.58a149.16,149.16,0,0,1-8.67,50.75H267.73Z"/></svg>