<?xml version="1.0" encoding="utf-8"?>
<!-- Generator: Adobe Illustrator 27.2.0, SVG Export Plug-In . SVG Version: 6.00 Build 0)  -->
<svg version="1.1" id="Layer_1" xmlns="http://www.w3.org/2000/svg" xmlns:xlink="http://www.w3.org/1999/xlink" x="0px" y="0px"
	 viewBox="0 0 800 800" style="enable-background:new 0 0 800 800;" xml:space="preserve">
<style type="text/css">
	.st0{fill:#FF2F00;}
</style>
<path class="st0" d="M580.9,594.1c14-37.6,21.8-75.7,21.8-113.9c0-75.2-56.5-123.1-110.1-127c-20.9-1.5-36,0.3-57.2,7.6
	c9.3-22.4,11.6-44.2,10.6-66c-3.2-69.9-71.5-108.4-124.6-108.4c-28.9,0-53.2,1.5-115.3,29.4h0v378.2h61.6v0L580.9,594.1L580.9,594.1
	z M267.7,254.7c18.7-6.9,37.6-10.3,55.4-10.3c35.5,0,67.5,26.6,67.5,67.2c0,34.2-11.4,60.2-61,109.7l43.6,43.6
	c35.2-34.2,63.3-56,103-56c43.6,0,68.9,34.5,68.9,75.6c0,18.7-3.1,34.8-8.7,50.8h-0.2H267.7V254.7z"/>
</svg>
